<svg width="46" height="46" viewBox="0 0 46 46" fill="none" xmlns="http://www.w3.org/2000/svg">
<path fill-rule="evenodd" clip-rule="evenodd" d="M23.0001 27.0671L33.1641 37.2312C33.7035 37.7706 34.435 38.0736 35.1977 38.0736C35.9605 38.0736 36.692 37.7706 37.2313 37.2312C37.7706 36.6919 38.0736 35.9604 38.0736 35.1976C38.0736 34.4349 37.7706 33.7034 37.2313 33.164L27.0634 23L37.2294 12.8359C37.4963 12.5688 37.708 12.2518 37.8524 11.9029C37.9969 11.5541 38.0711 11.1802 38.071 10.8026C38.071 10.425 37.9965 10.0511 37.8519 9.70232C37.7074 9.35352 37.4955 9.0366 37.2284 8.76968C36.9614 8.50275 36.6444 8.29103 36.2955 8.14662C35.9466 8.00221 35.5727 7.92793 35.1951 7.92802C34.8175 7.9281 34.4437 8.00256 34.0949 8.14714C33.7461 8.29172 33.4292 8.50358 33.1622 8.77063L23.0001 18.9347L12.836 8.77063C12.5709 8.49592 12.2538 8.27675 11.9031 8.12591C11.5524 7.97507 11.1752 7.89558 10.7934 7.89209C10.4117 7.88859 10.0331 7.96116 9.67968 8.10555C9.32628 8.24994 9.00518 8.46326 8.73512 8.73308C8.46505 9.00289 8.25142 9.32379 8.1067 9.67705C7.96197 10.0303 7.88905 10.4088 7.89219 10.7906C7.89532 11.1723 7.97445 11.5496 8.12496 11.9005C8.27547 12.2513 8.49434 12.5686 8.76881 12.834L18.9367 23L8.77072 33.166C8.49626 33.4313 8.27739 33.7487 8.12688 34.0995C7.97637 34.4503 7.89724 34.8276 7.8941 35.2093C7.89097 35.5911 7.96389 35.9696 8.10861 36.3229C8.25334 36.6761 8.46697 36.997 8.73703 37.2669C9.0071 37.5367 9.3282 37.75 9.68159 37.8944C10.035 38.0388 10.4136 38.1113 10.7953 38.1078C11.1771 38.1044 11.5543 38.0249 11.905 37.874C12.2557 37.7232 12.5728 37.504 12.8379 37.2293L23.0001 27.0671Z" fill="#EFEFEF"/>
</svg>
