<svg width="32" height="32" viewBox="0 0 32 32" fill="none" xmlns="http://www.w3.org/2000/svg">
<path fill-rule="evenodd" clip-rule="evenodd" d="M16 2.6665C12.3787 2.6665 11.9254 2.6825 10.5027 2.7465C9.08402 2.81184 8.11469 3.03717 7.26669 3.3665C6.37667 3.70096 5.57036 4.22561 4.90402 4.90384C4.22583 5.5702 3.70119 6.37651 3.36669 7.2665C3.03735 8.1145 2.81202 9.08384 2.74669 10.5025C2.68135 11.9252 2.66669 12.3785 2.66669 15.9998C2.66669 19.6212 2.68135 20.0745 2.74669 21.4972C2.81202 22.9158 3.03735 23.8852 3.36669 24.7332C3.70122 25.6231 4.22586 26.4294 4.90402 27.0958C5.57041 27.774 6.37671 28.2986 7.26669 28.6332C8.11469 28.9625 9.08402 29.1878 10.5027 29.2532C11.9254 29.3172 12.3787 29.3332 16 29.3332C19.6214 29.3332 20.0747 29.3172 21.4974 29.2532C22.916 29.1878 23.8854 28.9625 24.7334 28.6332C25.6233 28.2987 26.4297 27.774 27.096 27.0958C27.7742 26.4295 28.2989 25.6232 28.6334 24.7332C28.9627 23.8852 29.188 22.9158 29.2534 21.4972C29.3174 20.0745 29.3334 19.6212 29.3334 15.9998C29.3334 12.3785 29.3174 11.9252 29.2534 10.5025C29.188 9.08384 28.9627 8.1145 28.6334 7.2665C28.2989 6.37651 27.7742 5.5702 27.096 4.90384C26.4297 4.22561 25.6234 3.70096 24.7334 3.3665C23.8854 3.03717 22.916 2.81184 21.4974 2.7465C20.0747 2.6825 19.6214 2.6665 16 2.6665ZM16 5.06917C19.56 5.06917 19.9814 5.0825 21.3867 5.1465C22.688 5.2065 23.3934 5.4225 23.864 5.60517C24.4854 5.84784 24.9307 6.13717 25.3974 6.6025C25.864 7.06917 26.152 7.5145 26.3947 8.13584C26.576 8.6065 26.7947 9.31184 26.8534 10.6118C26.9174 12.0185 26.9307 12.4385 26.9307 15.9998C26.9307 19.5598 26.9174 19.9812 26.8534 21.3865C26.7934 22.6878 26.576 23.3932 26.3947 23.8638C26.1809 24.443 25.8401 24.967 25.3974 25.3972C24.9307 25.8638 24.4854 26.1518 23.864 26.3945C23.3934 26.5758 22.688 26.7945 21.388 26.8532C19.9827 26.9172 19.5614 26.9305 16 26.9305C12.44 26.9305 12.0174 26.9172 10.6134 26.8532C9.31202 26.7932 8.60669 26.5758 8.13602 26.3945C7.5568 26.1808 7.03284 25.84 6.60269 25.3972C6.15983 24.967 5.81903 24.4431 5.60535 23.8638C5.42269 23.3932 5.20535 22.6878 5.14669 21.3878C5.08269 19.9812 5.06935 19.5612 5.06935 15.9998C5.06935 12.4398 5.08269 12.0185 5.14669 10.6132C5.20669 9.31184 5.42269 8.6065 5.60535 8.13584C5.84802 7.5145 6.13735 7.06917 6.60269 6.6025C7.06935 6.13584 7.51469 5.84784 8.13602 5.60517C8.60669 5.4225 9.31202 5.20517 10.612 5.1465C12.0187 5.0825 12.4387 5.06917 16 5.06917ZM16 20.4438C14.8214 20.4438 13.691 19.9756 12.8576 19.1422C12.0242 18.3088 11.556 17.1785 11.556 15.9998C11.556 14.8212 12.0242 13.6909 12.8576 12.8575C13.691 12.024 14.8214 11.5558 16 11.5558C17.1786 11.5558 18.309 12.024 19.1424 12.8575C19.9758 13.6909 20.444 14.8212 20.444 15.9998C20.444 17.1785 19.9758 18.3088 19.1424 19.1422C18.309 19.9756 17.1786 20.4438 16 20.4438ZM16 9.15317C15.1009 9.15317 14.2106 9.33026 13.3799 9.67434C12.5492 10.0184 11.7945 10.5227 11.1587 11.1585C10.5229 11.7943 10.0186 12.5491 9.67452 13.3797C9.33045 14.2104 9.15335 15.1007 9.15335 15.9998C9.15335 16.899 9.33045 17.7893 9.67452 18.6199C10.0186 19.4506 10.5229 20.2054 11.1587 20.8412C11.7945 21.4769 12.5492 21.9813 13.3799 22.3253C14.2106 22.6694 15.1009 22.8465 16 22.8465C17.8159 22.8465 19.5573 22.1252 20.8413 20.8412C22.1253 19.5572 22.8467 17.8157 22.8467 15.9998C22.8467 14.184 22.1253 12.4425 20.8413 11.1585C19.5573 9.87451 17.8159 9.15317 16 9.15317ZM24.7174 8.8825C24.7174 9.09262 24.676 9.30068 24.5956 9.4948C24.5152 9.68892 24.3973 9.8653 24.2487 10.0139C24.1001 10.1624 23.9238 10.2803 23.7296 10.3607C23.5355 10.4411 23.3275 10.4825 23.1174 10.4825C22.9072 10.4825 22.6992 10.4411 22.5051 10.3607C22.3109 10.2803 22.1346 10.1624 21.986 10.0139C21.8374 9.8653 21.7196 9.68892 21.6391 9.4948C21.5587 9.30068 21.5174 9.09262 21.5174 8.8825C21.5174 8.45816 21.6859 8.05119 21.986 7.75113C22.286 7.45107 22.693 7.2825 23.1174 7.2825C23.5417 7.2825 23.9487 7.45107 24.2487 7.75113C24.5488 8.05119 24.7174 8.45816 24.7174 8.8825Z" fill="#EFEFEF" fill-opacity="0.9"/>
</svg>
