<svg width="45" height="54" viewBox="0 0 45 54" fill="none" xmlns="http://www.w3.org/2000/svg">
<path d="M11.25 11.0455C11.25 8.11602 12.4353 5.30656 14.545 3.23514C16.6548 1.16371 19.5163 0 22.5 0C25.4837 0 28.3452 1.16371 30.455 3.23514C32.5647 5.30656 33.75 8.11602 33.75 11.0455V14.7273H45V54H0V14.7273H11.25V11.0455ZM11.25 19.6364H5V49.0909H40V19.6364H33.75V27H28.75V19.6364H16.25V27H11.25V19.6364ZM28.75 14.7273V11.0455C28.75 9.41799 28.0915 7.85718 26.9194 6.70639C25.7473 5.5556 24.1576 4.90909 22.5 4.90909C20.8424 4.90909 19.2527 5.5556 18.0806 6.70639C16.9085 7.85718 16.25 9.41799 16.25 11.0455V14.7273H28.75Z" fill="#EFEFEF"/>
</svg>
