<svg width="20" height="20" viewBox="0 0 20 20" fill="none" xmlns="http://www.w3.org/2000/svg">
<path d="M11.512 4.72417L15.2652 8.475L8.47381 15.2667L4.72314 11.5133L11.512 4.72417ZM9.00712 16.3442L16.3402 9.01083C16.4114 8.94148 16.468 8.85859 16.5067 8.76702C16.5453 8.67546 16.5653 8.57708 16.5654 8.47768C16.5655 8.37827 16.5457 8.27986 16.5071 8.18824C16.4686 8.09661 16.4121 8.01363 16.341 7.94417L12.0445 3.6475C11.9008 3.51028 11.7097 3.43379 11.511 3.43395C11.3123 3.4341 11.1214 3.51089 10.9779 3.64833L3.64485 10.9817C3.57364 11.051 3.51702 11.1339 3.47834 11.2255C3.43966 11.317 3.41969 11.4154 3.41961 11.5148C3.41954 11.6142 3.43935 11.7126 3.47789 11.8043C3.51643 11.8959 3.57291 11.9789 3.64402 12.0483L7.9405 16.345C8.0842 16.4822 8.27529 16.5587 8.47398 16.5586C8.67267 16.5584 8.86364 16.4816 9.00712 16.3442ZM19.5592 8.78333L8.79463 19.5608C8.51798 19.8325 8.13883 20 7.72051 20C7.3022 20 6.92305 19.8325 6.64639 19.5608L5.15145 18.0667C5.56887 17.6363 5.80026 17.0589 5.79564 16.4594C5.79102 15.8598 5.55076 15.2861 5.12675 14.8622C4.70275 14.4383 4.12902 14.1982 3.52948 14.1937C2.92994 14.1892 2.35269 14.4208 1.92242 14.8383L1.92325 14.8375L0.439148 13.3425C0.167493 13.0658 0 12.6867 0 12.2683C0 11.85 0.167493 11.4708 0.439148 11.1942L11.2045 0.439167C11.4812 0.1675 11.8603 0 12.2787 0C12.697 0 13.0761 0.1675 13.3528 0.439167L14.8369 1.92333C14.6172 2.13356 14.4417 2.38556 14.3207 2.66454C14.1996 2.94352 14.1356 3.24387 14.1322 3.54794C14.1289 3.85202 14.1863 4.1537 14.3011 4.43529C14.4159 4.71688 14.5858 4.97269 14.8008 5.18772C15.0158 5.40275 15.2717 5.57266 15.5532 5.68748C15.8348 5.8023 16.1365 5.85971 16.4405 5.85635C16.7446 5.85299 17.0449 5.78893 17.3239 5.66792C17.6029 5.54691 17.8549 5.37139 18.0651 5.15167L18.0659 5.15083L19.5609 6.635C19.8325 6.91167 20 7.29083 20 7.70917C20 8.1275 19.8325 8.50667 19.5609 8.78333H19.5592Z" fill="#010101"/>
</svg>
