<svg width="32" height="24" viewBox="0 0 32 24" fill="none" xmlns="http://www.w3.org/2000/svg">
<path d="M31.3313 4.27445C30.9633 2.89338 29.8791 1.80585 28.5022 1.43676C26.0067 0.765982 16 0.765982 16 0.765982C16 0.765982 5.99333 0.765982 3.4978 1.43676C2.12102 1.80585 1.03665 2.89338 0.668678 4.27445C0 6.77752 0 12 0 12C0 12 0 17.2225 0.668678 19.7258C1.03665 21.1067 2.12102 22.1942 3.4978 22.5634C5.99333 23.2341 16 23.2341 16 23.2341C16 23.2341 26.0067 23.2341 28.5022 22.5634C29.8791 22.1942 30.9633 21.1067 31.3313 19.7258C32 17.2225 32 12 32 12C32 12 32 6.77752 31.3313 4.27445Z" fill="#ED1D24"/>
<path d="M12.7273 16.7416L21.0909 12.0002L12.7273 7.25838V16.7416Z" fill="white"/>
</svg>
